<svg xmlns="http://www.w3.org/2000/svg" viewBox="0 0 512 512"><g id="Capa_2" data-name="Capa 2"><g id="Layer_1" data-name="Layer 1"><path d="M400,512H112A112.14,112.14,0,0,1,0,400V112A112.14,112.14,0,0,1,112,0H400A112.14,112.14,0,0,1,512,112V400A112.14,112.14,0,0,1,400,512ZM112,7.07A105.06,105.06,0,0,0,7.07,112V400A105.07,105.07,0,0,0,112,504.93H400A105.07,105.07,0,0,0,504.93,400V112A105.07,105.07,0,0,0,400,7.07Z"/></g><g id="Layer_2" data-name="Layer 2"><path d="M259.06,410.15v-132h109.6l-1.72-4.74c-12.3-33.86-35.88-59.31-66.52-71.89l-7.23-92.62C313.49,97,326.32,77.28,329.42,53l.51-4H184.11l.51,4c3,23.66,14.86,42.51,34.27,54.64l-7.31,93.84c-30.64,12.58-54.22,38-66.52,71.89l-1.72,4.74H252V410.19c-46.28.65-91.42,9.67-91.42,26.37,0,17.34,48.68,26.41,96.77,26.41s96.78-9.07,96.78-26.41C354.12,419.43,306.58,410.37,259.06,410.15Zm-42.85-202.9,2.08-.8,8-102.62-1.9-1.11c-17.46-10.27-28.51-26.33-32.13-46.63H321.8c-3.76,21.16-15.45,37.61-34,47.71l-2,1.09,7.92,101.56,2.08.8c28.27,11,50.38,33.51,62.68,63.8H153.53C165.84,240.76,187.94,218.21,216.21,207.25Zm41.13,248.66c-54.76,0-89.7-11.46-89.7-19.35,0-7.62,32.68-18.59,84.35-19.3v20.26a3.54,3.54,0,1,0,7.07,0V417.23c53.76.24,88,11.53,88,19.33S312.1,455.91,257.34,455.91Z"/></g></g></svg>