<svg xmlns="http://www.w3.org/2000/svg" viewBox="0 0 512 512"><g id="Capa_2" data-name="Capa 2"><g id="Layer_2" data-name="Layer 2"><path d="M400,512H112A112.14,112.14,0,0,1,0,400V112A112.14,112.14,0,0,1,112,0H400A112.14,112.14,0,0,1,512,112V400A112.14,112.14,0,0,1,400,512ZM112,7.07A105.07,105.07,0,0,0,7.07,112V400a105.07,105.07,0,0,0,105,105H400A105.07,105.07,0,0,0,504.93,400V112A105.07,105.07,0,0,0,400,7.07Z"/><path d="M322.28,80.48H117.71v351H394.29v-279Zm59.94,69.94H324.35V92.55Zm-257.44,274V87.55h192.5v69.94h69.94v267Z"/><path d="M315.19,358H156.84a3.54,3.54,0,1,0,0,7.07H315.19a3.54,3.54,0,0,0,0-7.07Z"/><path d="M315.19,311.5H156.84a3.54,3.54,0,1,0,0,7.07H315.19a3.54,3.54,0,0,0,0-7.07Z"/><path d="M159.72,266.82h0a3.54,3.54,0,0,0,3.54-3.5A45,45,0,0,1,208.06,219h.1a45,45,0,0,1,44.77,44.32,3.54,3.54,0,0,0,3.53,3.5h0a3.55,3.55,0,0,0,3.5-3.58,52.13,52.13,0,0,0-35.34-48.56,33.92,33.92,0,1,0-33.09,0,52.12,52.12,0,0,0-35.34,48.56A3.54,3.54,0,0,0,159.72,266.82Zm21.55-81.73a26.84,26.84,0,1,1,26.89,26.84h-.1A26.87,26.87,0,0,1,181.27,185.09Z"/></g></g></svg>