<svg xmlns="http://www.w3.org/2000/svg" viewBox="0 0 512 512"><g id="Capa_2" data-name="Capa 2"><g id="Layer_1" data-name="Layer 1"><path d="M400,512H112A112.14,112.14,0,0,1,0,400V112A112.14,112.14,0,0,1,112,0H400A112.14,112.14,0,0,1,512,112V400A112.14,112.14,0,0,1,400,512ZM112,7.07A105.06,105.06,0,0,0,7.07,112V400A105.07,105.07,0,0,0,112,504.93H400A105.07,105.07,0,0,0,504.93,400V112A105.07,105.07,0,0,0,400,7.07Z"/></g><g id="Layer_2" data-name="Layer 2"><path d="M305.36,252.33a3.54,3.54,0,0,0,2.41,6.65l90.45-32.8V378.56L306,411V341a3.54,3.54,0,0,0-7.07,0v69.17l-91.13-32V308.51a3.54,3.54,0,1,0-7.07,0V379L111,410.58V258.18l93.59-32.06a3.54,3.54,0,0,0-2.3-6.69L104,253.13V420.56l101.48-35.75,98.16,34.51,101.69-35.76V216.07Z"/><path d="M258.36,290.77l3.07,5.34,3.06-5.35c2.21-3.85,54.07-94.51,57.29-101.76,4.49-10.08,6.58-19.28,6.58-28.93a67.3,67.3,0,0,0-66.92-67.16h-3.79V93a67.31,67.31,0,0,0-63.4,67.06c0,9.65,2.09,18.85,6.58,28.93C204.05,196.25,256.15,286.91,258.36,290.77ZM261.2,100h.21a60.22,60.22,0,0,1,59.88,60.1c0,8.63-1.9,16.91-6,26.06-2.33,5.25-34.67,62.12-53.9,95.77-19.32-33.64-51.8-90.52-54.13-95.77-4.07-9.15-6-17.43-6-26.06A60.22,60.22,0,0,1,261.2,100Z"/><path d="M261.31,189.1a30.57,30.57,0,1,0-30.57-30.57A30.6,30.6,0,0,0,261.31,189.1Zm0-54.07a23.5,23.5,0,1,1-23.5,23.5A23.53,23.53,0,0,1,261.31,135Z"/></g></g></svg>