<svg xmlns="http://www.w3.org/2000/svg" viewBox="0 0 449.03 359.22"><g id="Capa_2" data-name="Capa 2"><g id="Layer_2" data-name="Layer 2"><g id="home_automation_domotic" data-name="home automation domotic"><path id="Trazado_1280" data-name="Trazado 1280" d="M444.47,159.35,231.18,2.19a11.24,11.24,0,0,0-13.33,0L4.57,159.35a11.22,11.22,0,0,0,6.66,20.26H67.36V348a11.23,11.23,0,0,0,11.23,11.23H101a11.23,11.23,0,0,0,0-22.45H89.81V168.39a11.22,11.22,0,0,0-11.22-11.23H45.4l179.12-132,179.12,132H370.45a11.22,11.22,0,0,0-11.22,11.23V336.77H348a11.23,11.23,0,1,0,0,22.45h22.45A11.23,11.23,0,0,0,381.68,348V179.61H437.8a11.22,11.22,0,0,0,6.67-20.25Z"/></g></g></g></svg>