<svg xmlns="http://www.w3.org/2000/svg" viewBox="0 0 512 512"><g id="Capa_2" data-name="Capa 2"><g id="Layer_2" data-name="Layer 2"><path d="M400,512H112A112.14,112.14,0,0,1,0,400V112A112.14,112.14,0,0,1,112,0H400A112.14,112.14,0,0,1,512,112V400A112.14,112.14,0,0,1,400,512ZM112,7.07A105.07,105.07,0,0,0,7.07,112V400a105.07,105.07,0,0,0,105,105H400A105.07,105.07,0,0,0,504.93,400V112A105.07,105.07,0,0,0,400,7.07Z"/><path d="M377.17,217.11A65.27,65.27,0,1,0,274.7,146.46a73.26,73.26,0,0,0-37.54-.42,65.29,65.29,0,0,0-127.59,19.55,64.74,64.74,0,0,0,25.26,51.52A126.81,126.81,0,0,0,48.7,334.49a3.55,3.55,0,0,0,3.47,3.6h.07a3.54,3.54,0,0,0,3.53-3.47,119.63,119.63,0,0,1,88-112.85l8-2.14-7.06-4.29a58.18,58.18,0,0,1,30.13-108,58.46,58.46,0,0,1,55.54,40.74,73.47,73.47,0,0,0-48.59,69,72.71,72.71,0,0,0,29.07,58.4A142.87,142.87,0,0,0,113,408.1a3.54,3.54,0,1,0,7.07.13c1.08-59.82,42.15-112.46,99.88-128l8-2.15-7.06-4.28a66.29,66.29,0,1,1,68.61,0l-7.06,4.28,8,2.15c57.73,15.55,98.8,68.19,99.88,128a3.54,3.54,0,0,0,3.53,3.47h.07a3.55,3.55,0,0,0,3.47-3.6,142.89,142.89,0,0,0-97.89-132.55,72.7,72.7,0,0,0,29.08-58.4,73.47,73.47,0,0,0-47.11-68.48,58.22,58.22,0,1,1,85.86,66.67l-7.06,4.29,8,2.14a119.64,119.64,0,0,1,88.05,112.85,3.54,3.54,0,0,0,3.53,3.47h.07a3.55,3.55,0,0,0,3.47-3.6A126.81,126.81,0,0,0,377.17,217.11Z"/></g></g></svg>